<?xml version="1.0" encoding="utf-8"?>
<!-- Generator: Adobe Illustrator 25.1.0, SVG Export Plug-In . SVG Version: 6.00 Build 0)  -->
<svg version="1.1" id="Livello_1" xmlns="http://www.w3.org/2000/svg" xmlns:xlink="http://www.w3.org/1999/xlink" x="0px" y="0px"
	 viewBox="0 0 809.9 273.9" style="enable-background:new 0 0 809.9 273.9;" xml:space="preserve">
<style type="text/css">
	.st0{fill:url(#SVGID_1_);}
	.st1{fill:url(#SVGID_2_);}
	.st2{fill:url(#SVGID_3_);}
	.st3{fill:url(#SVGID_4_);}
	.st4{fill:#FFFFFF;}
</style>
<linearGradient id="SVGID_1_" gradientUnits="userSpaceOnUse" x1="25.3254" y1="7.1057" x2="175.3287" y2="266.9114" gradientTransform="matrix(1 0 0 -1 6.285336e-03 273.9389)">
	<stop  offset="0" style="stop-color:#FFA87B"/>
	<stop  offset="1" style="stop-color:#F35C6E"/>
</linearGradient>
<path class="st0" d="M174.5,6.5l1.7,1c23.4,13.5,31.5,43.5,17.9,66.9l-101,174.9c-13.5,23.4-43.5,31.5-66.9,17.9l-1.7-1
	C1,252.8-7,222.8,6.5,199.4l101-174.9C121.1,1,151-7,174.5,6.5z"/>
<linearGradient id="SVGID_2_" gradientUnits="userSpaceOnUse" x1="68.1202" y1="229.0171" x2="218.1163" y2="-30.7863" gradientTransform="matrix(1 0 0 -1 0 273.9375)">
	<stop  offset="7.000000e-02" style="stop-color:#5C3E84"/>
	<stop  offset="0.31" style="stop-color:#604FA6"/>
	<stop  offset="0.6" style="stop-color:#6460C7"/>
	<stop  offset="0.84" style="stop-color:#676ADB"/>
	<stop  offset="1" style="stop-color:#686EE2"/>
</linearGradient>
<path class="st1" d="M294.1,199.4l-101-174.9C179.5,1.1,149.6-6.9,126.2,6.5l-1.7,1c-9,5.2-16,13.1-20.2,22.5L13.6,187.5
	c27.5-47.6,89-64.1,136.6-36.6l0,0l0.2-0.4l57.1,98.9c13.6,23.4,43.5,31.4,66.9,17.9l1.7-1C299.6,252.8,307.6,222.8,294.1,199.4z"/>
<linearGradient id="SVGID_3_" gradientUnits="userSpaceOnUse" x1="331.4785" y1="218.1918" x2="547.0585" y2="93.7318" gradientTransform="matrix(1 0 0 -1 0 273.9375)">
	<stop  offset="0" style="stop-color:#FFA87B"/>
	<stop  offset="1" style="stop-color:#F35C6E"/>
</linearGradient>
<path class="st2" d="M535.5,97.5L377.7,6.4c-21.8-12.5-49.6-5-62.2,16.7l0,0c-4.2,7.4-6.3,15.8-6,24.2l-0.1,0.6v48
	c0,22.1,17.9,40,40,40c14.5,0,27.9-7.9,34.9-20.5l105.7,61c21.8,12.5,49.6,5.1,62.2-16.7l0,0C564.7,137.9,557.2,110.1,535.5,97.5z"
	/>
<linearGradient id="SVGID_4_" gradientUnits="userSpaceOnUse" x1="377.1959" y1="176.2676" x2="515.6959" y2="-31.2124" gradientTransform="matrix(1 0 0 -1 0 273.9375)">
	<stop  offset="0" style="stop-color:#5C3E84"/>
	<stop  offset="1" style="stop-color:#686EE2"/>
</linearGradient>
<path class="st3" d="M552.6,115l-0.9-1.6c-4.7-8.2-11.9-14.6-20.5-18.4L387.8,12.4c43.4,25,58.4,81,33.3,124.4l0,0l0.4,0.2l-90.1,52
	c-21.3,12.4-28.6,39.6-16.3,61l0.9,1.6c12.4,21.3,39.6,28.6,61,16.3l159.3-92C557.6,163.6,564.8,136.3,552.6,115z"/>
<path class="st4" d="M598,233.8c0,4.1-1,7.1-3,9.1c-2,2-4.3,3-6.8,3h-23.7c0,1.9,1.1,3.4,3.3,4.7c2.2,1.3,4.4,1.9,6.6,1.9
	c3.9,0,6.9-0.4,9.1-1.2l1.1-0.4c1.6-0.7,2.9-1.1,4-1.1c2.1,0,4,1.5,5.5,4.5c0.9,1.8,1.3,3.3,1.3,4.6c0,5.9-7.1,8.9-21.3,8.9
	c-4.9,0-9.3-0.8-13.2-2.5c-3.8-1.7-6.8-4-9-6.8c-4.2-5.4-6.3-11.4-6.3-18.1c0-8.4,2.7-15.1,8.2-20.2c5.4-5,12.2-7.5,20.3-7.5
	c9.3,0,16.1,3.3,20.4,9.8C596.9,225.9,598,229.7,598,233.8z M576.9,236.7c2.5,0,3.8-1.1,3.8-3.2c0-1.5-0.6-2.8-1.8-3.7
	c-1.2-0.9-2.8-1.4-5-1.4c-2.2,0-4.3,0.9-6.5,2.7c-2.1,1.8-3.2,3.6-3.2,5.6H576.9z"/>
<path class="st4" d="M682.4,195.9c0.5,1,0.8,1.9,0.9,2.7c0.1,0.8,0.2,2,0.2,3.5v55.5c0,4.6-1.3,7.3-3.8,8.1
	c-1.3,0.4-2.9,0.6-4.8,0.6c-1.9,0-3.5-0.2-4.6-0.5c-1.1-0.3-2-0.7-2.6-1.2c-0.6-0.5-1.1-1.1-1.4-2c-0.3-1.1-0.5-2.9-0.5-5.2v-33.5
	c-1.7,2.1-4.1,5.3-7.3,9.8s-5.2,7.3-6.1,8.5c-0.9,1.1-1.5,1.9-1.8,2.4c-0.3,0.4-1.1,1-2.4,1.8c-1.3,0.8-2.7,1.1-4.2,1.1
	s-2.9-0.3-4.1-1c-1.2-0.7-2.1-1.4-2.6-2l-0.8-1.1c-1.3-1.7-4-5.2-7.9-10.7c-3.9-5.4-6.1-8.3-6.4-8.8v33.7c0,1.5-0.1,2.7-0.2,3.5
	c-0.1,0.8-0.4,1.6-1,2.5c-1,1.8-3.6,2.7-7.8,2.7c-4.1,0-6.6-0.9-7.6-2.7c-0.5-0.9-0.9-1.8-1-2.6c-0.1-0.8-0.2-2-0.2-3.6v-55.5
	c0-1.5,0-2.7,0.2-3.5c0.1-0.8,0.4-1.6,1-2.6c1-1.7,3.6-2.6,7.8-2.6c1.8,0,3.3,0.2,4.6,0.7c1.3,0.4,2.2,0.9,2.6,1.3l0.6,0.6
	l22.7,29.8c11.3-15,18.9-24.9,22.7-29.7c1.1-1.8,3.8-2.7,8.1-2.7C678.9,193.2,681.5,194.1,682.4,195.9z"/>
<path class="st4" d="M709.2,248.7H740c1.5,0,2.7,0,3.5,0.2c0.8,0.1,1.6,0.4,2.6,1c1.8,0.9,2.7,3.5,2.7,7.8c0,4.7-1.2,7.4-3.7,8.2
	c-1.1,0.4-2.9,0.6-5.2,0.6h-39.6c-4.7,0-7.4-1.3-8.2-3.8c-0.4-1.1-0.6-2.8-0.6-5.1v-55.6c0-3.4,0.6-5.7,1.9-7
	c1.3-1.2,3.7-1.8,7.2-1.8H740c1.5,0,2.7,0,3.5,0.1c0.8,0.1,1.6,0.4,2.6,1c1.8,0.9,2.7,3.5,2.7,7.8c0,4.7-1.2,7.4-3.7,8.2
	c-1.1,0.4-2.9,0.6-5.2,0.6h-30.7v10.1H729c1.5,0,2.7,0,3.5,0.2c0.8,0.1,1.6,0.4,2.6,0.9c1.8,0.9,2.7,3.5,2.7,7.8
	c0,4.7-1.3,7.4-3.8,8.2c-1.1,0.4-2.9,0.6-5.2,0.6h-19.6V248.7z"/>
<path class="st4" d="M756.4,256.1c-1.7-2.1-2.6-4-2.6-5.7s1.4-4,4.3-6.8c1.7-1.6,3.4-2.4,5.3-2.4c1.9,0,4.5,1.7,7.8,5
	c0.9,1.1,2.3,2.2,4,3.2c1.7,1,3.3,1.5,4.8,1.5c6.2,0,9.3-2.5,9.3-7.6c0-1.5-0.8-2.8-2.5-3.8c-1.7-1-3.8-1.8-6.4-2.2
	c-2.5-0.5-5.3-1.2-8.2-2.2c-2.9-1-5.7-2.2-8.2-3.7c-2.5-1.4-4.7-3.6-6.4-6.7c-1.7-3-2.5-6.7-2.5-10.9c0-5.9,2.2-11,6.5-15.4
	c4.4-4.4,10.3-6.5,17.9-6.5c4,0,7.6,0.5,11,1.5c3.3,1,5.6,2.1,6.8,3.2l2.5,1.9c2.1,1.9,3.1,3.6,3.1,4.9c0,1.3-0.8,3.2-2.4,5.5
	c-2.3,3.3-4.6,5-7,5c-1.4,0-3.1-0.7-5.2-2c-0.2-0.1-0.6-0.5-1.2-1c-0.6-0.5-1.1-1-1.5-1.3c-1.4-0.9-3.2-1.3-5.3-1.3
	c-2.2,0-4,0.5-5.4,1.5c-1.4,1-2.1,2.5-2.1,4.3c0,1.8,0.8,3.3,2.5,4.5c1.7,1.1,3.8,1.9,6.3,2.3c2.5,0.4,5.3,1,8.3,1.8
	c3,0.8,5.8,1.9,8.3,3.1c2.5,1.2,4.6,3.3,6.3,6.2c1.7,3,2.5,6.6,2.5,10.9c0,4.3-0.9,8.2-2.6,11.5c-1.7,3.3-4,5.9-6.8,7.7
	c-5.4,3.5-11.2,5.3-17.3,5.3c-3.1,0-6.1-0.4-8.9-1.2s-5.1-1.7-6.8-2.8c-3.5-2.1-6-4.2-7.4-6.2L756.4,256.1z"/>
</svg>
