<?xml version="1.0" encoding="UTF-8" standalone="no"?>
<!-- Generator: Adobe Illustrator 25.1.0, SVG Export Plug-In . SVG Version: 6.00 Build 0)  -->

<svg
  version="1.1"
  id="Livello_1"
  x="0px"
  y="0px"
  viewBox="0 0 558.9 273.9"
  xml:space="preserve"
  sodipodi:docname="logo-ADe.svg"
  inkscape:version="1.3 (0e150ed6c4, 2023-07-21)"
  width="558.90002"
  height="273.89999"
  xmlns:inkscape="http://www.inkscape.org/namespaces/inkscape"
  xmlns:sodipodi="http://sodipodi.sourceforge.net/DTD/sodipodi-0.dtd"
  xmlns="http://www.w3.org/2000/svg"
  xmlns:svg="http://www.w3.org/2000/svg"><defs
   id="defs15"><linearGradient
     id="swatch16"
     inkscape:swatch="solid"><stop
       style="stop-color:#ffffff;stop-opacity:1;"
       offset="0"
       id="stop16" /></linearGradient></defs><sodipodi:namedview
   id="namedview15"
   pagecolor="#ffffff"
   bordercolor="#000000"
   borderopacity="0.25"
   inkscape:showpageshadow="2"
   inkscape:pageopacity="0.0"
   inkscape:pagecheckerboard="0"
   inkscape:deskcolor="#d1d1d1"
   inkscape:zoom="2.2752441"
   inkscape:cx="428.52546"
   inkscape:cy="116.69078"
   inkscape:window-width="3200"
   inkscape:window-height="1711"
   inkscape:window-x="-9"
   inkscape:window-y="-9"
   inkscape:window-maximized="1"
   inkscape:current-layer="Livello_1" />&#10;<style
   type="text/css"
   id="style1">&#10;	.st0{fill:url(#SVGID_1_);}&#10;	.st1{fill:url(#SVGID_2_);}&#10;	.st2{fill:url(#SVGID_3_);}&#10;	.st3{fill:url(#SVGID_4_);}&#10;	.st4{fill:#FFFFFF;}&#10;</style>&#10;<linearGradient
   id="SVGID_1_"
   gradientUnits="userSpaceOnUse"
   x1="25.325399"
   y1="7.1057"
   x2="175.3287"
   y2="266.91141"
   gradientTransform="matrix(1,0,0,-1,0.00628534,273.9389)">&#10;	<stop
   offset="0"
   style="stop-color:#FFA87B"
   id="stop1" />&#10;	<stop
   offset="1"
   style="stop-color:#F35C6E"
   id="stop2" />&#10;</linearGradient>&#10;<path
   class="st0"
   d="m 174.5,6.5 1.7,1 C 199.6,21 207.7,51 194.1,74.4 l -101,174.9 c -13.5,23.4 -43.5,31.5 -66.9,17.9 l -1.7,-1 C 1,252.8 -7,222.8 6.5,199.4 L 107.5,24.5 C 121.1,1 151,-7 174.5,6.5 Z"
   id="path2"
   style="fill:url(#SVGID_1_)" />&#10;<linearGradient
   id="SVGID_2_"
   gradientUnits="userSpaceOnUse"
   x1="68.120201"
   y1="229.01711"
   x2="218.1163"
   y2="-30.786301"
   gradientTransform="matrix(1,0,0,-1,0,273.9375)">&#10;	<stop
   offset="7.000000e-02"
   style="stop-color:#5C3E84"
   id="stop3" />&#10;	<stop
   offset="0.31"
   style="stop-color:#604FA6"
   id="stop4" />&#10;	<stop
   offset="0.6"
   style="stop-color:#6460C7"
   id="stop5" />&#10;	<stop
   offset="0.84"
   style="stop-color:#676ADB"
   id="stop6" />&#10;	<stop
   offset="1"
   style="stop-color:#686EE2"
   id="stop7" />&#10;</linearGradient>&#10;<path
   class="st1"
   d="M 294.1,199.4 193.1,24.5 C 179.5,1.1 149.6,-6.9 126.2,6.5 l -1.7,1 c -9,5.2 -16,13.1 -20.2,22.5 L 13.6,187.5 c 27.5,-47.6 89,-64.1 136.6,-36.6 v 0 l 0.2,-0.4 57.1,98.9 c 13.6,23.4 43.5,31.4 66.9,17.9 l 1.7,-1 c 23.5,-13.5 31.5,-43.5 18,-66.9 z"
   id="path7"
   style="fill:url(#SVGID_2_)" />&#10;<linearGradient
   id="SVGID_3_"
   gradientUnits="userSpaceOnUse"
   x1="331.47849"
   y1="218.1918"
   x2="547.05847"
   y2="93.731796"
   gradientTransform="matrix(1,0,0,-1,0,273.9375)">&#10;	<stop
   offset="0"
   style="stop-color:#FFA87B"
   id="stop8" />&#10;	<stop
   offset="1"
   style="stop-color:#F35C6E"
   id="stop9" />&#10;</linearGradient>&#10;<path
   class="st2"
   d="M 535.5,97.5 377.7,6.4 c -21.8,-12.5 -49.6,-5 -62.2,16.7 v 0 c -4.2,7.4 -6.3,15.8 -6,24.2 l -0.1,0.6 v 48 c 0,22.1 17.9,40 40,40 14.5,0 27.9,-7.9 34.9,-20.5 l 105.7,61 c 21.8,12.5 49.6,5.1 62.2,-16.7 v 0 c 12.5,-21.8 5,-49.6 -16.7,-62.2 z"
   id="path9"
   style="fill:url(#SVGID_3_)" />&#10;<linearGradient
   id="SVGID_4_"
   gradientUnits="userSpaceOnUse"
   x1="377.19589"
   y1="176.26759"
   x2="515.69592"
   y2="-31.2124"
   gradientTransform="matrix(1,0,0,-1,0,273.9375)">&#10;	<stop
   offset="0"
   style="stop-color:#5C3E84"
   id="stop10" />&#10;	<stop
   offset="1"
   style="stop-color:#686EE2"
   id="stop11" />&#10;</linearGradient>&#10;<path
   class="st3"
   d="m 552.6,115 -0.9,-1.6 C 547,105.2 539.8,98.8 531.2,95 L 387.8,12.4 c 43.4,25 58.4,81 33.3,124.4 v 0 l 0.4,0.2 -90.1,52 c -21.3,12.4 -28.6,39.6 -16.3,61 l 0.9,1.6 c 12.4,21.3 39.6,28.6 61,16.3 l 159.3,-92 c 21.3,-12.3 28.5,-39.6 16.3,-60.9 z"
   id="path11"
   style="fill:url(#SVGID_4_)" />&#10;&#10;&#10;&#10;&#10;</svg>