<?xml version="1.0" encoding="UTF-8" standalone="no"?>
<!DOCTYPE svg PUBLIC "-//W3C//DTD SVG 1.1//EN"
 "http://www.w3.org/Graphics/SVG/1.1/DTD/svg11.dtd">
<!-- Generated by graphviz version 2.47.0 (20210316.0004)
 -->
<!-- Title: dependencies Pages: 1 -->
<svg width="1253pt" height="211pt"
 viewBox="0.00 0.00 1253.00 211.00" xmlns="http://www.w3.org/2000/svg" xmlns:xlink="http://www.w3.org/1999/xlink">
<g id="graph0" class="graph" transform="scale(1 1) rotate(0) translate(4 207)">
<title>dependencies</title>
<polygon fill="white" stroke="transparent" points="-4,4 -4,-207 1249,-207 1249,4 -4,4"/>
<text text-anchor="start" x="601.51" y="-42.4" font-family="Times-12" font-weight="bold" font-size="14.00">Legend</text>
<polygon fill="#ffffb3" stroke="transparent" points="388.5,-10 388.5,-30 408.5,-30 408.5,-10 388.5,-10"/>
<text text-anchor="start" x="412.13" y="-15.4" font-family="Times-12" font-size="14.00"> &#160;Declarations</text>
<polygon fill="#8dd3c7" stroke="transparent" points="501.5,-10 501.5,-30 521.5,-30 521.5,-10 501.5,-10"/>
<text text-anchor="start" x="525.23" y="-15.4" font-family="Times-12" font-size="14.00"> &#160;Module</text>
<polygon fill="#80b1d3" stroke="transparent" points="587.5,-10 587.5,-30 607.5,-30 607.5,-10 587.5,-10"/>
<text text-anchor="start" x="611.28" y="-15.4" font-family="Times-12" font-size="14.00"> &#160;Bootstrap</text>
<polygon fill="#fdb462" stroke="transparent" points="684.5,-10 684.5,-30 704.5,-30 704.5,-10 684.5,-10"/>
<text text-anchor="start" x="708.17" y="-15.4" font-family="Times-12" font-size="14.00"> &#160;Providers</text>
<polygon fill="#fb8072" stroke="transparent" points="780.5,-10 780.5,-30 800.5,-30 800.5,-10 780.5,-10"/>
<text text-anchor="start" x="804.23" y="-15.4" font-family="Times-12" font-size="14.00"> &#160;Exports</text>
<g id="clust1" class="cluster">
<title>cluster_ApiModule</title>
<polygon fill="none" stroke="black" stroke-dasharray="1,5" points="8,-70 8,-195 1237,-195 1237,-70 8,-70"/>
</g>
<g id="clust6" class="cluster">
<title>cluster_ApiModule_providers</title>
<polygon fill="none" stroke="black" points="16,-78 16,-130 1229,-130 1229,-78 16,-78"/>
</g>
<!-- ApiConfiguration -->
<g id="node1" class="node">
<title>ApiConfiguration</title>
<ellipse fill="#fdb462" stroke="black" cx="1141" cy="-104" rx="79.9" ry="18"/>
<text text-anchor="middle" x="1141" y="-99.8" font-family="Times,serif" font-size="14.00">ApiConfiguration</text>
</g>
<!-- ApiModule -->
<g id="node7" class="node">
<title>ApiModule</title>
<polygon fill="#8dd3c7" stroke="black" points="693.05,-187 690.05,-191 669.05,-191 666.05,-187 612.95,-187 612.95,-151 693.05,-151 693.05,-187"/>
<text text-anchor="middle" x="653" y="-164.8" font-family="Times,serif" font-size="14.00">ApiModule</text>
</g>
<!-- ApiConfiguration&#45;&gt;ApiModule -->
<g id="edge1" class="edge">
<title>ApiConfiguration&#45;&gt;ApiModule</title>
<path fill="none" stroke="black" d="M1141,-122.28C1141,-143.32 1141,-175 1141,-175 1141,-175 703.35,-175 703.35,-175"/>
<polygon fill="black" stroke="black" points="703.35,-171.5 693.35,-175 703.35,-178.5 703.35,-171.5"/>
</g>
<!-- AuthenticationService -->
<g id="node2" class="node">
<title>AuthenticationService</title>
<ellipse fill="#fdb462" stroke="black" cx="946" cy="-104" rx="97.27" ry="18"/>
<text text-anchor="middle" x="946" y="-99.8" font-family="Times,serif" font-size="14.00">AuthenticationService</text>
</g>
<!-- AuthenticationService&#45;&gt;ApiModule -->
<g id="edge2" class="edge">
<title>AuthenticationService&#45;&gt;ApiModule</title>
<path fill="none" stroke="black" d="M946,-122.02C946,-139.37 946,-163 946,-163 946,-163 703.13,-163 703.13,-163"/>
<polygon fill="black" stroke="black" points="703.13,-159.5 693.13,-163 703.13,-166.5 703.13,-159.5"/>
</g>
<!-- OperatorsService -->
<g id="node3" class="node">
<title>OperatorsService</title>
<ellipse fill="#fdb462" stroke="black" cx="753" cy="-104" rx="78.12" ry="18"/>
<text text-anchor="middle" x="753" y="-99.8" font-family="Times,serif" font-size="14.00">OperatorsService</text>
</g>
<!-- OperatorsService&#45;&gt;ApiModule -->
<g id="edge3" class="edge">
<title>OperatorsService&#45;&gt;ApiModule</title>
<path fill="none" stroke="black" d="M684.11,-112.5C684.11,-112.5 684.11,-140.91 684.11,-140.91"/>
<polygon fill="black" stroke="black" points="680.61,-140.91 684.11,-150.91 687.61,-140.91 680.61,-140.91"/>
</g>
<!-- QualityAttributeService -->
<g id="node4" class="node">
<title>QualityAttributeService</title>
<ellipse fill="#fdb462" stroke="black" cx="553" cy="-104" rx="103.65" ry="18"/>
<text text-anchor="middle" x="553" y="-99.8" font-family="Times,serif" font-size="14.00">QualityAttributeService</text>
</g>
<!-- QualityAttributeService&#45;&gt;ApiModule -->
<g id="edge4" class="edge">
<title>QualityAttributeService&#45;&gt;ApiModule</title>
<path fill="none" stroke="black" d="M634.77,-115.32C634.77,-115.32 634.77,-140.94 634.77,-140.94"/>
<polygon fill="black" stroke="black" points="631.27,-140.94 634.77,-150.94 638.27,-140.94 631.27,-140.94"/>
</g>
<!-- QualityPhaseService -->
<g id="node5" class="node">
<title>QualityPhaseService</title>
<ellipse fill="#fdb462" stroke="black" cx="340" cy="-104" rx="91.47" ry="18"/>
<text text-anchor="middle" x="340" y="-99.8" font-family="Times,serif" font-size="14.00">QualityPhaseService</text>
</g>
<!-- QualityPhaseService&#45;&gt;ApiModule -->
<g id="edge5" class="edge">
<title>QualityPhaseService&#45;&gt;ApiModule</title>
<path fill="none" stroke="black" d="M340,-122.02C340,-139.37 340,-163 340,-163 340,-163 602.72,-163 602.72,-163"/>
<polygon fill="black" stroke="black" points="602.72,-166.5 612.72,-163 602.72,-159.5 602.72,-166.5"/>
</g>
<!-- QualitySaveLogService -->
<g id="node6" class="node">
<title>QualitySaveLogService</title>
<ellipse fill="#fdb462" stroke="black" cx="127" cy="-104" rx="103.07" ry="18"/>
<text text-anchor="middle" x="127" y="-99.8" font-family="Times,serif" font-size="14.00">QualitySaveLogService</text>
</g>
<!-- QualitySaveLogService&#45;&gt;ApiModule -->
<g id="edge6" class="edge">
<title>QualitySaveLogService&#45;&gt;ApiModule</title>
<path fill="none" stroke="black" d="M127,-122.28C127,-143.32 127,-175 127,-175 127,-175 602.6,-175 602.6,-175"/>
<polygon fill="black" stroke="black" points="602.6,-178.5 612.6,-175 602.6,-171.5 602.6,-178.5"/>
</g>
</g>
</svg>
