<?xml version="1.0" encoding="UTF-8" standalone="no"?>
<!DOCTYPE svg PUBLIC "-//W3C//DTD SVG 1.1//EN"
 "http://www.w3.org/Graphics/SVG/1.1/DTD/svg11.dtd">
<!-- Generated by graphviz version 2.47.0 (20210316.0004)
 -->
<!-- Title: dependencies Pages: 1 -->
<svg width="2326pt" height="284pt"
 viewBox="0.00 0.00 2326.00 284.00" xmlns="http://www.w3.org/2000/svg" xmlns:xlink="http://www.w3.org/1999/xlink">
<g id="graph0" class="graph" transform="scale(1 1) rotate(0) translate(4 280)">
<title>dependencies</title>
<polygon fill="white" stroke="transparent" points="-4,4 -4,-280 2322,-280 2322,4 -4,4"/>
<text text-anchor="start" x="1138.01" y="-42.4" font-family="Times-12" font-weight="bold" font-size="14.00">Legend</text>
<polygon fill="#ffffb3" stroke="transparent" points="925,-10 925,-30 945,-30 945,-10 925,-10"/>
<text text-anchor="start" x="948.63" y="-15.4" font-family="Times-12" font-size="14.00"> &#160;Declarations</text>
<polygon fill="#8dd3c7" stroke="transparent" points="1038,-10 1038,-30 1058,-30 1058,-10 1038,-10"/>
<text text-anchor="start" x="1061.73" y="-15.4" font-family="Times-12" font-size="14.00"> &#160;Module</text>
<polygon fill="#80b1d3" stroke="transparent" points="1124,-10 1124,-30 1144,-30 1144,-10 1124,-10"/>
<text text-anchor="start" x="1147.78" y="-15.4" font-family="Times-12" font-size="14.00"> &#160;Bootstrap</text>
<polygon fill="#fdb462" stroke="transparent" points="1221,-10 1221,-30 1241,-30 1241,-10 1221,-10"/>
<text text-anchor="start" x="1244.67" y="-15.4" font-family="Times-12" font-size="14.00"> &#160;Providers</text>
<polygon fill="#fb8072" stroke="transparent" points="1317,-10 1317,-30 1337,-30 1337,-10 1317,-10"/>
<text text-anchor="start" x="1340.73" y="-15.4" font-family="Times-12" font-size="14.00"> &#160;Exports</text>
<g id="clust1" class="cluster">
<title>cluster_AppModule</title>
<polygon fill="none" stroke="black" stroke-dasharray="1,5" points="8,-70 8,-268 2310,-268 2310,-70 8,-70"/>
</g>
<g id="clust2" class="cluster">
<title>cluster_AppModule_declarations</title>
<polygon fill="none" stroke="black" points="168,-78 168,-130 2302,-130 2302,-78 168,-78"/>
</g>
<g id="clust19" class="cluster">
<title>cluster_AppModule_bootstrap</title>
<polygon fill="none" stroke="black" points="982,-208 982,-260 1106,-260 1106,-208 982,-208"/>
</g>
<g id="clust17" class="cluster">
<title>cluster_AppModule_imports</title>
<polygon fill="none" stroke="black" points="16,-78 16,-130 160,-130 160,-78 16,-78"/>
</g>
<!-- AppComponent -->
<g id="node1" class="node">
<title>AppComponent</title>
<polygon fill="#ffffb3" stroke="black" points="2293.94,-122 2188.06,-122 2188.06,-86 2293.94,-86 2293.94,-122"/>
<text text-anchor="middle" x="2241" y="-99.8" font-family="Times,serif" font-size="14.00">AppComponent</text>
</g>
<!-- AppModule -->
<g id="node15" class="node">
<title>AppModule</title>
<polygon fill="#8dd3c7" stroke="black" points="1085.66,-187 1082.66,-191 1061.66,-191 1058.66,-187 1002.34,-187 1002.34,-151 1085.66,-151 1085.66,-187"/>
<text text-anchor="middle" x="1044" y="-164.8" font-family="Times,serif" font-size="14.00">AppModule</text>
</g>
<!-- AppComponent&#45;&gt;AppModule -->
<g id="edge1" class="edge">
<title>AppComponent&#45;&gt;AppModule</title>
<path fill="none" stroke="black" d="M2241,-122.32C2241,-145.66 2241,-183 2241,-183 2241,-183 1095.9,-183 1095.9,-183"/>
<polygon fill="black" stroke="black" points="1095.9,-179.5 1085.9,-183 1095.9,-186.5 1095.9,-179.5"/>
</g>
<!-- ConfirmDataDialogComponent -->
<g id="node2" class="node">
<title>ConfirmDataDialogComponent</title>
<polygon fill="#ffffb3" stroke="black" points="2170.8,-122 1977.2,-122 1977.2,-86 2170.8,-86 2170.8,-122"/>
<text text-anchor="middle" x="2074" y="-99.8" font-family="Times,serif" font-size="14.00">ConfirmDataDialogComponent</text>
</g>
<!-- ConfirmDataDialogComponent&#45;&gt;AppModule -->
<g id="edge2" class="edge">
<title>ConfirmDataDialogComponent&#45;&gt;AppModule</title>
<path fill="none" stroke="black" d="M2074,-122.29C2074,-144.21 2074,-178 2074,-178 2074,-178 1095.97,-178 1095.97,-178"/>
<polygon fill="black" stroke="black" points="1095.97,-174.5 1085.97,-178 1095.97,-181.5 1095.97,-174.5"/>
</g>
<!-- DashboardComponent -->
<g id="node3" class="node">
<title>DashboardComponent</title>
<polygon fill="#ffffb3" stroke="black" points="1958.97,-122 1817.03,-122 1817.03,-86 1958.97,-86 1958.97,-122"/>
<text text-anchor="middle" x="1888" y="-99.8" font-family="Times,serif" font-size="14.00">DashboardComponent</text>
</g>
<!-- DashboardComponent&#45;&gt;AppModule -->
<g id="edge3" class="edge">
<title>DashboardComponent&#45;&gt;AppModule</title>
<path fill="none" stroke="black" d="M1888,-122.03C1888,-142.77 1888,-174 1888,-174 1888,-174 1095.85,-174 1095.85,-174"/>
<polygon fill="black" stroke="black" points="1095.85,-170.5 1085.85,-174 1095.85,-177.5 1095.85,-170.5"/>
</g>
<!-- LogModifierComponent -->
<g id="node4" class="node">
<title>LogModifierComponent</title>
<polygon fill="#ffffb3" stroke="black" points="1798.65,-122 1645.35,-122 1645.35,-86 1798.65,-86 1798.65,-122"/>
<text text-anchor="middle" x="1722" y="-99.8" font-family="Times,serif" font-size="14.00">LogModifierComponent</text>
</g>
<!-- LogModifierComponent&#45;&gt;AppModule -->
<g id="edge4" class="edge">
<title>LogModifierComponent&#45;&gt;AppModule</title>
<path fill="none" stroke="black" d="M1722,-122.11C1722,-141.34 1722,-169 1722,-169 1722,-169 1095.9,-169 1095.9,-169"/>
<polygon fill="black" stroke="black" points="1095.9,-165.5 1085.9,-169 1095.9,-172.5 1095.9,-165.5"/>
</g>
<!-- LogViewerComponent -->
<g id="node5" class="node">
<title>LogViewerComponent</title>
<polygon fill="#ffffb3" stroke="black" points="1627.58,-122 1482.42,-122 1482.42,-86 1627.58,-86 1627.58,-122"/>
<text text-anchor="middle" x="1555" y="-99.8" font-family="Times,serif" font-size="14.00">LogViewerComponent</text>
</g>
<!-- LogViewerComponent&#45;&gt;AppModule -->
<g id="edge5" class="edge">
<title>LogViewerComponent&#45;&gt;AppModule</title>
<path fill="none" stroke="black" d="M1555,-122.3C1555,-140.27 1555,-165 1555,-165 1555,-165 1095.82,-165 1095.82,-165"/>
<polygon fill="black" stroke="black" points="1095.82,-161.5 1085.82,-165 1095.82,-168.5 1095.82,-161.5"/>
</g>
<!-- LoginPinComponent -->
<g id="node6" class="node">
<title>LoginPinComponent</title>
<polygon fill="#ffffb3" stroke="black" points="1464.95,-122 1331.05,-122 1331.05,-86 1464.95,-86 1464.95,-122"/>
<text text-anchor="middle" x="1398" y="-99.8" font-family="Times,serif" font-size="14.00">LoginPinComponent</text>
</g>
<!-- LoginPinComponent&#45;&gt;AppModule -->
<g id="edge6" class="edge">
<title>LoginPinComponent&#45;&gt;AppModule</title>
<path fill="none" stroke="black" d="M1398,-122.03C1398,-138.4 1398,-160 1398,-160 1398,-160 1096,-160 1096,-160"/>
<polygon fill="black" stroke="black" points="1096,-156.5 1086,-160 1096,-163.5 1096,-156.5"/>
</g>
<!-- LoginUsernameComponent -->
<g id="node7" class="node">
<title>LoginUsernameComponent</title>
<polygon fill="#ffffb3" stroke="black" points="1313.52,-122 1142.48,-122 1142.48,-86 1313.52,-86 1313.52,-122"/>
<text text-anchor="middle" x="1228" y="-99.8" font-family="Times,serif" font-size="14.00">LoginUsernameComponent</text>
</g>
<!-- LoginUsernameComponent&#45;&gt;AppModule -->
<g id="edge7" class="edge">
<title>LoginUsernameComponent&#45;&gt;AppModule</title>
<path fill="none" stroke="black" d="M1228,-122.19C1228,-137.18 1228,-156 1228,-156 1228,-156 1095.75,-156 1095.75,-156"/>
<polygon fill="black" stroke="black" points="1095.75,-152.5 1085.75,-156 1095.75,-159.5 1095.75,-152.5"/>
</g>
<!-- LogoutDialogComponent -->
<g id="node8" class="node">
<title>LogoutDialogComponent</title>
<polygon fill="#ffffb3" stroke="black" points="1123.88,-122 964.12,-122 964.12,-86 1123.88,-86 1123.88,-122"/>
<text text-anchor="middle" x="1044" y="-99.8" font-family="Times,serif" font-size="14.00">LogoutDialogComponent</text>
</g>
<!-- LogoutDialogComponent&#45;&gt;AppModule -->
<g id="edge8" class="edge">
<title>LogoutDialogComponent&#45;&gt;AppModule</title>
<path fill="none" stroke="black" d="M1044,-122.11C1044,-122.11 1044,-140.99 1044,-140.99"/>
<polygon fill="black" stroke="black" points="1040.5,-140.99 1044,-150.99 1047.5,-140.99 1040.5,-140.99"/>
</g>
<!-- OptionsPipe -->
<g id="node9" class="node">
<title>OptionsPipe</title>
<polygon fill="#ffffb3" stroke="black" points="945.72,-122 860.28,-122 860.28,-86 945.72,-86 945.72,-122"/>
<text text-anchor="middle" x="903" y="-99.8" font-family="Times,serif" font-size="14.00">OptionsPipe</text>
</g>
<!-- OptionsPipe&#45;&gt;AppModule -->
<g id="edge9" class="edge">
<title>OptionsPipe&#45;&gt;AppModule</title>
<path fill="none" stroke="black" d="M903,-122.19C903,-137.18 903,-156 903,-156 903,-156 992.08,-156 992.08,-156"/>
<polygon fill="black" stroke="black" points="992.08,-159.5 1002.08,-156 992.08,-152.5 992.08,-159.5"/>
</g>
<!-- PhasesComponent -->
<g id="node10" class="node">
<title>PhasesComponent</title>
<polygon fill="#ffffb3" stroke="black" points="842.93,-122 723.07,-122 723.07,-86 842.93,-86 842.93,-122"/>
<text text-anchor="middle" x="783" y="-99.8" font-family="Times,serif" font-size="14.00">PhasesComponent</text>
</g>
<!-- PhasesComponent&#45;&gt;AppModule -->
<g id="edge10" class="edge">
<title>PhasesComponent&#45;&gt;AppModule</title>
<path fill="none" stroke="black" d="M783,-122.03C783,-138.4 783,-160 783,-160 783,-160 992.07,-160 992.07,-160"/>
<polygon fill="black" stroke="black" points="992.07,-163.5 1002.07,-160 992.07,-156.5 992.07,-163.5"/>
</g>
<!-- SafePipe -->
<g id="node11" class="node">
<title>SafePipe</title>
<polygon fill="#ffffb3" stroke="black" points="704.76,-122 639.24,-122 639.24,-86 704.76,-86 704.76,-122"/>
<text text-anchor="middle" x="672" y="-99.8" font-family="Times,serif" font-size="14.00">SafePipe</text>
</g>
<!-- SafePipe&#45;&gt;AppModule -->
<g id="edge11" class="edge">
<title>SafePipe&#45;&gt;AppModule</title>
<path fill="none" stroke="black" d="M672,-122.3C672,-140.27 672,-165 672,-165 672,-165 992.05,-165 992.05,-165"/>
<polygon fill="black" stroke="black" points="992.05,-168.5 1002.05,-165 992.05,-161.5 992.05,-168.5"/>
</g>
<!-- SidenavComponent -->
<g id="node12" class="node">
<title>SidenavComponent</title>
<polygon fill="#ffffb3" stroke="black" points="621.44,-122 494.56,-122 494.56,-86 621.44,-86 621.44,-122"/>
<text text-anchor="middle" x="558" y="-99.8" font-family="Times,serif" font-size="14.00">SidenavComponent</text>
</g>
<!-- SidenavComponent&#45;&gt;AppModule -->
<g id="edge12" class="edge">
<title>SidenavComponent&#45;&gt;AppModule</title>
<path fill="none" stroke="black" d="M558,-122.11C558,-141.34 558,-169 558,-169 558,-169 992.14,-169 992.14,-169"/>
<polygon fill="black" stroke="black" points="992.14,-172.5 1002.14,-169 992.14,-165.5 992.14,-172.5"/>
</g>
<!-- SplashScreenComponent -->
<g id="node13" class="node">
<title>SplashScreenComponent</title>
<polygon fill="#ffffb3" stroke="black" points="476.25,-122 319.75,-122 319.75,-86 476.25,-86 476.25,-122"/>
<text text-anchor="middle" x="398" y="-99.8" font-family="Times,serif" font-size="14.00">SplashScreenComponent</text>
</g>
<!-- SplashScreenComponent&#45;&gt;AppModule -->
<g id="edge13" class="edge">
<title>SplashScreenComponent&#45;&gt;AppModule</title>
<path fill="none" stroke="black" d="M398,-122.03C398,-142.77 398,-174 398,-174 398,-174 992.11,-174 992.11,-174"/>
<polygon fill="black" stroke="black" points="992.11,-177.5 1002.11,-174 992.11,-170.5 992.11,-177.5"/>
</g>
<!-- ToolbarComponent -->
<g id="node14" class="node">
<title>ToolbarComponent</title>
<polygon fill="#ffffb3" stroke="black" points="301.65,-122 176.35,-122 176.35,-86 301.65,-86 301.65,-122"/>
<text text-anchor="middle" x="239" y="-99.8" font-family="Times,serif" font-size="14.00">ToolbarComponent</text>
</g>
<!-- ToolbarComponent&#45;&gt;AppModule -->
<g id="edge14" class="edge">
<title>ToolbarComponent&#45;&gt;AppModule</title>
<path fill="none" stroke="black" d="M239,-122.29C239,-144.21 239,-178 239,-178 239,-178 992.13,-178 992.13,-178"/>
<polygon fill="black" stroke="black" points="992.13,-181.5 1002.13,-178 992.13,-174.5 992.13,-181.5"/>
</g>
<!-- AppComponent  -->
<g id="node17" class="node">
<title>AppComponent </title>
<polygon fill="#80b1d3" stroke="black" points="1098.44,-252 989.56,-252 989.56,-216 1098.44,-216 1098.44,-252"/>
<text text-anchor="middle" x="1044" y="-229.8" font-family="Times,serif" font-size="14.00">AppComponent </text>
</g>
<!-- AppModule&#45;&gt;AppComponent  -->
<g id="edge16" class="edge">
<title>AppModule&#45;&gt;AppComponent </title>
<path fill="none" stroke="black" stroke-dasharray="1,5" d="M1044,-187.11C1044,-187.11 1044,-205.99 1044,-205.99"/>
<polygon fill="black" stroke="black" points="1040.5,-205.99 1044,-215.99 1047.5,-205.99 1040.5,-205.99"/>
</g>
<!-- AppRoutingModule -->
<g id="node16" class="node">
<title>AppRoutingModule</title>
<polygon fill="#8dd3c7" stroke="black" points="152.27,-122 149.27,-126 128.27,-126 125.27,-122 23.73,-122 23.73,-86 152.27,-86 152.27,-122"/>
<text text-anchor="middle" x="88" y="-99.8" font-family="Times,serif" font-size="14.00">AppRoutingModule</text>
</g>
<!-- AppRoutingModule&#45;&gt;AppModule -->
<g id="edge15" class="edge">
<title>AppRoutingModule&#45;&gt;AppModule</title>
<path fill="none" stroke="black" d="M88,-122.32C88,-145.66 88,-183 88,-183 88,-183 992.31,-183 992.31,-183"/>
<polygon fill="black" stroke="black" points="992.31,-186.5 1002.31,-183 992.31,-179.5 992.31,-186.5"/>
</g>
</g>
</svg>
