<?xml version="1.0" encoding="UTF-8" standalone="no"?>
<!DOCTYPE svg PUBLIC "-//W3C//DTD SVG 1.1//EN" "http://www.w3.org/Graphics/SVG/1.1/DTD/svg11.dtd">
<!-- Generated by graphviz version 2.47.0 (20210316.0004)
 -->
<!-- Title: dependencies Pages: 1 -->
<svg width="2151pt" height="284pt"
    viewBox="0.00 0.00 2151.00 284.00" xmlns="http://www.w3.org/2000/svg"
    xmlns:xlink="http://www.w3.org/1999/xlink">
    <g id="graph0" class="graph" transform="scale(1 1) rotate(0) translate(4 280)">
        <title>dependencies</title>
        <polygon fill="white" stroke="transparent" points="-4,4 -4,-280 2147,-280 2147,4 -4,4" />
        <text text-anchor="start" x="1050.51" y="-42.4" font-family="Times-12" font-weight="bold"
            font-size="14.00">Legend</text>
        <polygon fill="#ffffb3" stroke="transparent"
            points="837.5,-10 837.5,-30 857.5,-30 857.5,-10 837.5,-10" />
        <text text-anchor="start" x="861.13" y="-15.4" font-family="Times-12" font-size="14.00">
            &#160;Declarations</text>
        <polygon fill="#8dd3c7" stroke="transparent"
            points="950.5,-10 950.5,-30 970.5,-30 970.5,-10 950.5,-10" />
        <text text-anchor="start" x="974.23" y="-15.4" font-family="Times-12" font-size="14.00">
            &#160;Module</text>
        <polygon fill="#80b1d3" stroke="transparent"
            points="1036.5,-10 1036.5,-30 1056.5,-30 1056.5,-10 1036.5,-10" />
        <text text-anchor="start" x="1060.28" y="-15.4" font-family="Times-12" font-size="14.00">
            &#160;Bootstrap</text>
        <polygon fill="#fdb462" stroke="transparent"
            points="1133.5,-10 1133.5,-30 1153.5,-30 1153.5,-10 1133.5,-10" />
        <text text-anchor="start" x="1157.17" y="-15.4" font-family="Times-12" font-size="14.00">
            &#160;Providers</text>
        <polygon fill="#fb8072" stroke="transparent"
            points="1229.5,-10 1229.5,-30 1249.5,-30 1249.5,-10 1229.5,-10" />
        <text text-anchor="start" x="1253.23" y="-15.4" font-family="Times-12" font-size="14.00">
            &#160;Exports</text>
        <g id="clust1" class="cluster">
            <title>cluster_AppModule</title>
            <polygon fill="none" stroke="black" stroke-dasharray="1,5"
                points="8,-70 8,-268 2135,-268 2135,-70 8,-70" />
        </g>
        <g id="clust2" class="cluster">
            <title>cluster_AppModule_declarations</title>
            <polygon fill="none" stroke="black" points="168,-78 168,-130 2127,-130 2127,-78 168,-78" />
        </g>
        <g id="clust16" class="cluster">
            <title>cluster_AppModule_imports</title>
            <polygon fill="none" stroke="black" points="16,-78 16,-130 160,-130 160,-78 16,-78" />
        </g>
        <g id="clust18" class="cluster">
            <title>cluster_AppModule_bootstrap</title>
            <polygon fill="none" stroke="black"
                points="899,-208 899,-260 1023,-260 1023,-208 899,-208" />
        </g>
        <!-- AppComponent -->
        <g id="node1" class="node">
            <title>AppComponent</title>
            <polygon fill="#ffffb3" stroke="black"
                points="2118.94,-122 2013.06,-122 2013.06,-86 2118.94,-86 2118.94,-122" />
            <text text-anchor="middle" x="2066" y="-99.8" font-family="Times,serif"
                font-size="14.00">AppComponent</text>
        </g>
        <!-- AppModule -->
        <g id="node14" class="node">
            <title>AppModule</title>
            <polygon fill="#8dd3c7" stroke="black"
                points="1002.66,-187 999.66,-191 978.66,-191 975.66,-187 919.34,-187 919.34,-151 1002.66,-151 1002.66,-187" />
            <text text-anchor="middle" x="961" y="-164.8" font-family="Times,serif"
                font-size="14.00">AppModule</text>
        </g>
        <!-- AppComponent&#45;&gt;AppModule -->
        <g id="edge1" class="edge">
            <title>AppComponent&#45;&gt;AppModule</title>
            <path fill="none" stroke="black"
                d="M2066,-122.09C2066,-145.13 2066,-182 2066,-182 2066,-182 1012.97,-182 1012.97,-182" />
            <polygon fill="black" stroke="black"
                points="1012.97,-178.5 1002.97,-182 1012.97,-185.5 1012.97,-178.5" />
        </g>
        <!-- ConfirmDataDialogComponent -->
        <g id="node2" class="node">
            <title>ConfirmDataDialogComponent</title>
            <polygon fill="#ffffb3" stroke="black"
                points="1995.8,-122 1802.2,-122 1802.2,-86 1995.8,-86 1995.8,-122" />
            <text text-anchor="middle" x="1899" y="-99.8" font-family="Times,serif"
                font-size="14.00">ConfirmDataDialogComponent</text>
        </g>
        <!-- ConfirmDataDialogComponent&#45;&gt;AppModule -->
        <g id="edge2" class="edge">
            <title>ConfirmDataDialogComponent&#45;&gt;AppModule</title>
            <path fill="none" stroke="black"
                d="M1899,-122.04C1899,-143.66 1899,-177 1899,-177 1899,-177 1012.82,-177 1012.82,-177" />
            <polygon fill="black" stroke="black"
                points="1012.82,-173.5 1002.82,-177 1012.82,-180.5 1012.82,-173.5" />
        </g>
        <!-- DashboardComponent -->
        <g id="node3" class="node">
            <title>DashboardComponent</title>
            <polygon fill="#ffffb3" stroke="black"
                points="1783.97,-122 1642.03,-122 1642.03,-86 1783.97,-86 1783.97,-122" />
            <text text-anchor="middle" x="1713" y="-99.8" font-family="Times,serif"
                font-size="14.00">DashboardComponent</text>
        </g>
        <!-- DashboardComponent&#45;&gt;AppModule -->
        <g id="edge3" class="edge">
            <title>DashboardComponent&#45;&gt;AppModule</title>
            <path fill="none" stroke="black"
                d="M1713,-122.22C1713,-142.37 1713,-172 1713,-172 1713,-172 1012.77,-172 1012.77,-172" />
            <polygon fill="black" stroke="black"
                points="1012.77,-168.5 1002.77,-172 1012.77,-175.5 1012.77,-168.5" />
        </g>
        <!-- LogModifierComponent -->
        <g id="node4" class="node">
            <title>LogModifierComponent</title>
            <polygon fill="#ffffb3" stroke="black"
                points="1623.65,-122 1470.35,-122 1470.35,-86 1623.65,-86 1623.65,-122" />
            <text text-anchor="middle" x="1547" y="-99.8" font-family="Times,serif"
                font-size="14.00">LogModifierComponent</text>
        </g>
        <!-- LogModifierComponent&#45;&gt;AppModule -->
        <g id="edge4" class="edge">
            <title>LogModifierComponent&#45;&gt;AppModule</title>
            <path fill="none" stroke="black"
                d="M1547,-122.22C1547,-140.83 1547,-167 1547,-167 1547,-167 1012.67,-167 1012.67,-167" />
            <polygon fill="black" stroke="black"
                points="1012.67,-163.5 1002.67,-167 1012.67,-170.5 1012.67,-163.5" />
        </g>
        <!-- LogViewerComponent -->
        <g id="node5" class="node">
            <title>LogViewerComponent</title>
            <polygon fill="#ffffb3" stroke="black"
                points="1452.58,-122 1307.42,-122 1307.42,-86 1452.58,-86 1452.58,-122" />
            <text text-anchor="middle" x="1380" y="-99.8" font-family="Times,serif"
                font-size="14.00">LogViewerComponent</text>
        </g>
        <!-- LogViewerComponent&#45;&gt;AppModule -->
        <g id="edge5" class="edge">
            <title>LogViewerComponent&#45;&gt;AppModule</title>
            <path fill="none" stroke="black"
                d="M1380,-122.03C1380,-139.06 1380,-162 1380,-162 1380,-162 1012.71,-162 1012.71,-162" />
            <polygon fill="black" stroke="black"
                points="1012.71,-158.5 1002.71,-162 1012.71,-165.5 1012.71,-158.5" />
        </g>
        <!-- LoginPinComponent -->
        <g id="node6" class="node">
            <title>LoginPinComponent</title>
            <polygon fill="#ffffb3" stroke="black"
                points="1289.95,-122 1156.05,-122 1156.05,-86 1289.95,-86 1289.95,-122" />
            <text text-anchor="middle" x="1223" y="-99.8" font-family="Times,serif"
                font-size="14.00">LoginPinComponent</text>
        </g>
        <!-- LoginPinComponent&#45;&gt;AppModule -->
        <g id="edge6" class="edge">
            <title>LoginPinComponent&#45;&gt;AppModule</title>
            <path fill="none" stroke="black"
                d="M1223,-122.24C1223,-137.57 1223,-157 1223,-157 1223,-157 1012.8,-157 1012.8,-157" />
            <polygon fill="black" stroke="black"
                points="1012.8,-153.5 1002.8,-157 1012.8,-160.5 1012.8,-153.5" />
        </g>
        <!-- LoginUsernameComponent -->
        <g id="node7" class="node">
            <title>LoginUsernameComponent</title>
            <polygon fill="#ffffb3" stroke="black"
                points="1138.52,-122 967.48,-122 967.48,-86 1138.52,-86 1138.52,-122" />
            <text text-anchor="middle" x="1053" y="-99.8" font-family="Times,serif"
                font-size="14.00">LoginUsernameComponent</text>
        </g>
        <!-- LoginUsernameComponent&#45;&gt;AppModule -->
        <g id="edge7" class="edge">
            <title>LoginUsernameComponent&#45;&gt;AppModule</title>
            <path fill="none" stroke="black"
                d="M985.03,-122.11C985.03,-122.11 985.03,-140.99 985.03,-140.99" />
            <polygon fill="black" stroke="black"
                points="981.53,-140.99 985.03,-150.99 988.53,-140.99 981.53,-140.99" />
        </g>
        <!-- LogoutDialogComponent -->
        <g id="node8" class="node">
            <title>LogoutDialogComponent</title>
            <polygon fill="#ffffb3" stroke="black"
                points="948.88,-122 789.12,-122 789.12,-86 948.88,-86 948.88,-122" />
            <text text-anchor="middle" x="869" y="-99.8" font-family="Times,serif" font-size="14.00">
                LogoutDialogComponent</text>
        </g>
        <!-- LogoutDialogComponent&#45;&gt;AppModule -->
        <g id="edge8" class="edge">
            <title>LogoutDialogComponent&#45;&gt;AppModule</title>
            <path fill="none" stroke="black"
                d="M934.06,-122.11C934.06,-122.11 934.06,-140.99 934.06,-140.99" />
            <polygon fill="black" stroke="black"
                points="930.56,-140.99 934.06,-150.99 937.56,-140.99 930.56,-140.99" />
        </g>
        <!-- OptionsPipe -->
        <g id="node9" class="node">
            <title>OptionsPipe</title>
            <polygon fill="#ffffb3" stroke="black"
                points="770.72,-122 685.28,-122 685.28,-86 770.72,-86 770.72,-122" />
            <text text-anchor="middle" x="728" y="-99.8" font-family="Times,serif" font-size="14.00">
                OptionsPipe</text>
        </g>
        <!-- OptionsPipe&#45;&gt;AppModule -->
        <g id="edge9" class="edge">
            <title>OptionsPipe&#45;&gt;AppModule</title>
            <path fill="none" stroke="black"
                d="M728,-122.24C728,-137.57 728,-157 728,-157 728,-157 909.08,-157 909.08,-157" />
            <polygon fill="black" stroke="black"
                points="909.08,-160.5 919.08,-157 909.08,-153.5 909.08,-160.5" />
        </g>
        <!-- PhasesComponent -->
        <g id="node10" class="node">
            <title>PhasesComponent</title>
            <polygon fill="#ffffb3" stroke="black"
                points="667.93,-122 548.07,-122 548.07,-86 667.93,-86 667.93,-122" />
            <text text-anchor="middle" x="608" y="-99.8" font-family="Times,serif" font-size="14.00">
                PhasesComponent</text>
        </g>
        <!-- PhasesComponent&#45;&gt;AppModule -->
        <g id="edge10" class="edge">
            <title>PhasesComponent&#45;&gt;AppModule</title>
            <path fill="none" stroke="black"
                d="M608,-122.03C608,-139.06 608,-162 608,-162 608,-162 909.12,-162 909.12,-162" />
            <polygon fill="black" stroke="black"
                points="909.12,-165.5 919.12,-162 909.12,-158.5 909.12,-165.5" />
        </g>
        <!-- SafePipe -->
        <g id="node11" class="node">
            <title>SafePipe</title>
            <polygon fill="#ffffb3" stroke="black"
                points="529.76,-122 464.24,-122 464.24,-86 529.76,-86 529.76,-122" />
            <text text-anchor="middle" x="497" y="-99.8" font-family="Times,serif" font-size="14.00">
                SafePipe</text>
        </g>
        <!-- SafePipe&#45;&gt;AppModule -->
        <g id="edge11" class="edge">
            <title>SafePipe&#45;&gt;AppModule</title>
            <path fill="none" stroke="black"
                d="M497,-122.22C497,-140.83 497,-167 497,-167 497,-167 909,-167 909,-167" />
            <polygon fill="black" stroke="black" points="909,-170.5 919,-167 909,-163.5 909,-170.5" />
        </g>
        <!-- SidenavComponent -->
        <g id="node12" class="node">
            <title>SidenavComponent</title>
            <polygon fill="#ffffb3" stroke="black"
                points="446.44,-122 319.56,-122 319.56,-86 446.44,-86 446.44,-122" />
            <text text-anchor="middle" x="383" y="-99.8" font-family="Times,serif" font-size="14.00">
                SidenavComponent</text>
        </g>
        <!-- SidenavComponent&#45;&gt;AppModule -->
        <g id="edge12" class="edge">
            <title>SidenavComponent&#45;&gt;AppModule</title>
            <path fill="none" stroke="black"
                d="M383,-122.22C383,-142.37 383,-172 383,-172 383,-172 908.97,-172 908.97,-172" />
            <polygon fill="black" stroke="black"
                points="908.97,-175.5 918.97,-172 908.97,-168.5 908.97,-175.5" />
        </g>
        <!-- ToolbarComponent -->
        <g id="node13" class="node">
            <title>ToolbarComponent</title>
            <polygon fill="#ffffb3" stroke="black"
                points="301.65,-122 176.35,-122 176.35,-86 301.65,-86 301.65,-122" />
            <text text-anchor="middle" x="239" y="-99.8" font-family="Times,serif" font-size="14.00">
                ToolbarComponent</text>
        </g>
        <!-- ToolbarComponent&#45;&gt;AppModule -->
        <g id="edge13" class="edge">
            <title>ToolbarComponent&#45;&gt;AppModule</title>
            <path fill="none" stroke="black"
                d="M239,-122.04C239,-143.66 239,-177 239,-177 239,-177 909.33,-177 909.33,-177" />
            <polygon fill="black" stroke="black"
                points="909.33,-180.5 919.33,-177 909.33,-173.5 909.33,-180.5" />
        </g>
        <!-- AppComponent  -->
        <g id="node16" class="node">
            <title>AppComponent </title>
            <polygon fill="#80b1d3" stroke="black"
                points="1015.44,-252 906.56,-252 906.56,-216 1015.44,-216 1015.44,-252" />
            <text text-anchor="middle" x="961" y="-229.8" font-family="Times,serif"
                font-size="14.00">AppComponent </text>
        </g>
        <!-- AppModule&#45;&gt;AppComponent  -->
        <g id="edge15" class="edge">
            <title>AppModule&#45;&gt;AppComponent </title>
            <path fill="none" stroke="black" stroke-dasharray="1,5"
                d="M961,-187.11C961,-187.11 961,-205.99 961,-205.99" />
            <polygon fill="black" stroke="black"
                points="957.5,-205.99 961,-215.99 964.5,-205.99 957.5,-205.99" />
        </g>
        <!-- AppRoutingModule -->
        <g id="node15" class="node">
            <title>AppRoutingModule</title>
            <polygon fill="#8dd3c7" stroke="black"
                points="152.27,-122 149.27,-126 128.27,-126 125.27,-122 23.73,-122 23.73,-86 152.27,-86 152.27,-122" />
            <text text-anchor="middle" x="88" y="-99.8" font-family="Times,serif" font-size="14.00">
                AppRoutingModule</text>
        </g>
        <!-- AppRoutingModule&#45;&gt;AppModule -->
        <g id="edge14" class="edge">
            <title>AppRoutingModule&#45;&gt;AppModule</title>
            <path fill="none" stroke="black"
                d="M88,-122.09C88,-145.13 88,-182 88,-182 88,-182 909.19,-182 909.19,-182" />
            <polygon fill="black" stroke="black"
                points="909.19,-185.5 919.19,-182 909.19,-178.5 909.19,-185.5" />
        </g>
    </g>
</svg>